<mxfile host="app.diagrams.net" modified="2023-10-25T13:40:05.903Z" agent="Mozilla/5.0 (Windows NT 10.0; Win64; x64; rv:109.0) Gecko/20100101 Firefox/118.0" etag="35koZQFydEiLI68teVJA" version="22.0.8" type="github">
  <diagram name="Página-1" id="EoT3B1NqJn4NV0eq_Sye">
    <mxGraphModel dx="1195" dy="628" grid="1" gridSize="10" guides="1" tooltips="1" connect="1" arrows="1" fold="1" page="1" pageScale="1" pageWidth="827" pageHeight="1169" math="0" shadow="0">
      <root>
        <mxCell id="0" />
        <mxCell id="1" parent="0" />
        <mxCell id="FUm_l-JQ_Ld9slQCw3d0-1" value="Coletor" style="shape=umlActor;verticalLabelPosition=bottom;verticalAlign=top;html=1;outlineConnect=0;labelBackgroundColor=none;fillColor=#5D7F99;strokeColor=#D0CEE2;fontColor=#1A1A1A;" vertex="1" parent="1">
          <mxGeometry x="240" y="20" width="30" height="60" as="geometry" />
        </mxCell>
        <mxCell id="FUm_l-JQ_Ld9slQCw3d0-2" value="Visualizar mapa" style="ellipse;whiteSpace=wrap;html=1;labelBackgroundColor=none;fillColor=#5D7F99;strokeColor=#D0CEE2;fontColor=#1A1A1A;" vertex="1" parent="1">
          <mxGeometry x="40" y="170" width="120" height="80" as="geometry" />
        </mxCell>
        <mxCell id="FUm_l-JQ_Ld9slQCw3d0-3" value="" style="endArrow=classic;html=1;rounded=0;entryX=0.75;entryY=0.077;entryDx=0;entryDy=0;entryPerimeter=0;labelBackgroundColor=none;fontColor=default;strokeColor=#736CA8;" edge="1" parent="1" target="FUm_l-JQ_Ld9slQCw3d0-2">
          <mxGeometry width="50" height="50" relative="1" as="geometry">
            <mxPoint x="190" y="90" as="sourcePoint" />
            <mxPoint x="210" y="120" as="targetPoint" />
          </mxGeometry>
        </mxCell>
        <mxCell id="FUm_l-JQ_Ld9slQCw3d0-4" value="" style="endArrow=classic;html=1;rounded=0;exitX=0.5;exitY=1;exitDx=0;exitDy=0;labelBackgroundColor=none;fontColor=default;strokeColor=#736CA8;" edge="1" parent="1" source="FUm_l-JQ_Ld9slQCw3d0-2" target="FUm_l-JQ_Ld9slQCw3d0-5">
          <mxGeometry width="50" height="50" relative="1" as="geometry">
            <mxPoint x="160" y="240" as="sourcePoint" />
            <mxPoint y="330" as="targetPoint" />
          </mxGeometry>
        </mxCell>
        <mxCell id="FUm_l-JQ_Ld9slQCw3d0-5" value="Buscar coletores" style="ellipse;whiteSpace=wrap;html=1;labelBackgroundColor=none;fillColor=#5D7F99;strokeColor=#D0CEE2;fontColor=#1A1A1A;" vertex="1" parent="1">
          <mxGeometry x="40" y="300" width="120" height="80" as="geometry" />
        </mxCell>
        <mxCell id="FUm_l-JQ_Ld9slQCw3d0-8" value="" style="endArrow=classic;html=1;rounded=0;labelBackgroundColor=none;fontColor=default;strokeColor=#736CA8;" edge="1" parent="1" target="FUm_l-JQ_Ld9slQCw3d0-9">
          <mxGeometry width="50" height="50" relative="1" as="geometry">
            <mxPoint x="320" y="90" as="sourcePoint" />
            <mxPoint x="340" y="190" as="targetPoint" />
          </mxGeometry>
        </mxCell>
        <mxCell id="FUm_l-JQ_Ld9slQCw3d0-9" value="&lt;div&gt;Buscar Informações&lt;/div&gt;&lt;div&gt;de descarte&lt;br&gt;&lt;/div&gt;" style="ellipse;whiteSpace=wrap;html=1;labelBackgroundColor=none;fillColor=#5D7F99;strokeColor=#D0CEE2;fontColor=#1A1A1A;" vertex="1" parent="1">
          <mxGeometry x="450" y="50" width="120" height="80" as="geometry" />
        </mxCell>
        <mxCell id="FUm_l-JQ_Ld9slQCw3d0-10" value="" style="endArrow=classic;html=1;rounded=0;entryX=0.5;entryY=0;entryDx=0;entryDy=0;labelBackgroundColor=none;fontColor=default;strokeColor=#736CA8;" edge="1" parent="1" target="FUm_l-JQ_Ld9slQCw3d0-11">
          <mxGeometry width="50" height="50" relative="1" as="geometry">
            <mxPoint x="260" y="110" as="sourcePoint" />
            <mxPoint x="330" y="180" as="targetPoint" />
          </mxGeometry>
        </mxCell>
        <mxCell id="FUm_l-JQ_Ld9slQCw3d0-11" value="Iniciar Rota" style="ellipse;whiteSpace=wrap;html=1;labelBackgroundColor=none;fillColor=#5D7F99;strokeColor=#D0CEE2;fontColor=#1A1A1A;" vertex="1" parent="1">
          <mxGeometry x="220" y="170" width="120" height="80" as="geometry" />
        </mxCell>
        <mxCell id="FUm_l-JQ_Ld9slQCw3d0-12" value="Notificar" style="ellipse;whiteSpace=wrap;html=1;labelBackgroundColor=none;fillColor=#5D7F99;strokeColor=#D0CEE2;fontColor=#1A1A1A;" vertex="1" parent="1">
          <mxGeometry x="425" y="170" width="120" height="80" as="geometry" />
        </mxCell>
        <mxCell id="FUm_l-JQ_Ld9slQCw3d0-13" value="" style="endArrow=classic;html=1;rounded=0;exitX=1;exitY=0.5;exitDx=0;exitDy=0;entryX=0;entryY=0.5;entryDx=0;entryDy=0;labelBackgroundColor=none;strokeColor=#736CA8;fontColor=default;" edge="1" parent="1" source="FUm_l-JQ_Ld9slQCw3d0-11" target="FUm_l-JQ_Ld9slQCw3d0-12">
          <mxGeometry width="50" height="50" relative="1" as="geometry">
            <mxPoint x="265" y="320" as="sourcePoint" />
            <mxPoint x="315" y="270" as="targetPoint" />
          </mxGeometry>
        </mxCell>
        <mxCell id="FUm_l-JQ_Ld9slQCw3d0-14" value="Email" style="ellipse;whiteSpace=wrap;html=1;labelBackgroundColor=none;fillColor=#5D7F99;strokeColor=#D0CEE2;fontColor=#1A1A1A;" vertex="1" parent="1">
          <mxGeometry x="340" y="290" width="120" height="80" as="geometry" />
        </mxCell>
        <mxCell id="FUm_l-JQ_Ld9slQCw3d0-15" value="Aplicação" style="ellipse;whiteSpace=wrap;html=1;labelBackgroundColor=none;fillColor=#5D7F99;strokeColor=#D0CEE2;fontColor=#1A1A1A;" vertex="1" parent="1">
          <mxGeometry x="505" y="290" width="120" height="80" as="geometry" />
        </mxCell>
        <mxCell id="FUm_l-JQ_Ld9slQCw3d0-17" value="" style="endArrow=classic;html=1;rounded=0;entryX=1;entryY=0;entryDx=0;entryDy=0;exitX=0.5;exitY=1;exitDx=0;exitDy=0;labelBackgroundColor=none;strokeColor=#736CA8;fontColor=default;" edge="1" parent="1" source="FUm_l-JQ_Ld9slQCw3d0-12" target="FUm_l-JQ_Ld9slQCw3d0-14">
          <mxGeometry width="50" height="50" relative="1" as="geometry">
            <mxPoint x="265" y="320" as="sourcePoint" />
            <mxPoint x="315" y="270" as="targetPoint" />
          </mxGeometry>
        </mxCell>
        <mxCell id="FUm_l-JQ_Ld9slQCw3d0-18" value="" style="endArrow=classic;html=1;rounded=0;exitX=0.5;exitY=1;exitDx=0;exitDy=0;entryX=0;entryY=0;entryDx=0;entryDy=0;labelBackgroundColor=none;strokeColor=#736CA8;fontColor=default;" edge="1" parent="1" source="FUm_l-JQ_Ld9slQCw3d0-12" target="FUm_l-JQ_Ld9slQCw3d0-15">
          <mxGeometry width="50" height="50" relative="1" as="geometry">
            <mxPoint x="265" y="320" as="sourcePoint" />
            <mxPoint x="315" y="270" as="targetPoint" />
          </mxGeometry>
        </mxCell>
        <mxCell id="FUm_l-JQ_Ld9slQCw3d0-19" value="Usuario com CEP na rota" style="shape=umlActor;verticalLabelPosition=bottom;verticalAlign=top;html=1;outlineConnect=0;labelBackgroundColor=none;fillColor=#5D7F99;strokeColor=#D0CEE2;fontColor=#1A1A1A;" vertex="1" parent="1">
          <mxGeometry x="470" y="430" width="30" height="60" as="geometry" />
        </mxCell>
        <mxCell id="FUm_l-JQ_Ld9slQCw3d0-20" value="" style="endArrow=classic;html=1;rounded=0;exitX=0.5;exitY=1;exitDx=0;exitDy=0;labelBackgroundColor=none;strokeColor=#736CA8;fontColor=default;" edge="1" parent="1" source="FUm_l-JQ_Ld9slQCw3d0-14">
          <mxGeometry width="50" height="50" relative="1" as="geometry">
            <mxPoint x="265" y="320" as="sourcePoint" />
            <mxPoint x="465" y="440" as="targetPoint" />
          </mxGeometry>
        </mxCell>
        <mxCell id="FUm_l-JQ_Ld9slQCw3d0-21" value="" style="endArrow=classic;html=1;rounded=0;exitX=0.5;exitY=1;exitDx=0;exitDy=0;labelBackgroundColor=none;strokeColor=#736CA8;fontColor=default;" edge="1" parent="1" source="FUm_l-JQ_Ld9slQCw3d0-15">
          <mxGeometry width="50" height="50" relative="1" as="geometry">
            <mxPoint x="265" y="320" as="sourcePoint" />
            <mxPoint x="505" y="440" as="targetPoint" />
          </mxGeometry>
        </mxCell>
      </root>
    </mxGraphModel>
  </diagram>
</mxfile>
